<?xml version="1.0" encoding="UTF-8" standalone="no"?>
<svg xmlns="http://www.w3.org/2000/svg" xmlns:xlink="http://www.w3.org/1999/xlink" width="333.654mm" height="214.818mm" viewBox="86.173203 -322.409180 333.653564 214.818329">
    <path transform="matrix(0.639153,0,0,-0.639153,72.127792,-98.066605)" style="stroke:#000000;stroke-width:0.078229mm;fill:none" d="M268.465729,349.94455C268.106964,349.364044,267.06366,346.11087,266.147247,342.715302C264.789978,337.686035,264.019409,336.409668,261.99057,335.830292C260.620758,335.439087,256.723206,334.281647,253.329376,333.258148L247.158752,331.397278L242.07666,336.698639C239.281525,339.61438,236.433304,341.993683,235.747284,341.985931C234.225922,341.968781,220.019272,334.351746,218.177109,332.565521C217.115051,331.535706,217.068329,329.743469,217.94017,323.475128L219.026123,315.66745L213.322311,310.58374C210.185211,307.787689,207.366837,305.512115,207.05925,305.526917C206.751663,305.541718,203.202301,306.654144,199.171783,307.998932L191.843552,310.444061L189.892456,307.972015C186.775818,304.023254,180,292.500366,180,291.148987C180,290.46991,182.091476,287.678375,184.64772,284.945526L189.295456,279.976715L186.39772,270.877106C184.80397,265.872345,183.050003,261.62915,182.5,261.447815C181.949997,261.266479,179.024994,260.629608,176,260.032532C172.975006,259.435486,169.986526,258.621399,169.358932,258.22348C168.731354,257.825562,167.743896,253.225006,167.164597,248C165.93251,236.887299,166.284515,236.273407,175.566315,233.347565C180.570221,231.770233,181.018723,231.373993,181.538773,228.071075C181.848022,226.106979,182.709915,221.885269,183.454102,218.689468L184.807159,212.878952L179.995071,209.189468C172.664215,203.568848,172.415207,202.693207,175.807999,194.465591C180.731247,182.526611,180.478851,182.75386,188,183.487915C191.574997,183.836838,195.228149,184.331284,196.118103,184.586685C197.182343,184.892105,198.138535,184.100998,198.911591,182.275528C199.558044,180.748993,201.790588,177.522125,203.872803,175.104721L207.658646,170.709442L205.353058,165.104721C204.084991,162.022125,203.036789,158.525314,203.023743,157.33403C202.999634,155.134201,206.449478,151.948547,214.711182,146.541641L218.922348,143.785614L223.211182,146.204788C225.570023,147.535339,228.438202,149.220428,229.584915,149.949432C231.437347,151.12709,232.404221,150.841415,238.256073,147.387451C245.256454,143.255569,246,141.96991,246,133.997452C246,131.933533,246.5625,129.781372,247.25,129.214844C248.903015,127.852692,259.16684,126,265.060089,126L269.752869,126L272.126434,131.482941L274.5,136.965866L280.614136,136.982941L286.728271,137L288.400085,132.622467C289.31958,130.214813,290.972137,127.430206,292.072449,126.434441C294.006287,124.684349,294.389313,124.700195,303.553497,126.909477C309.573212,128.360687,313.355896,129.798233,313.915833,130.847504C314.400848,131.756378,315.112701,135.028839,315.497772,138.119644L316.197876,143.739288L323.147858,147.369644C326.970367,149.366333,330.237488,151,330.408203,151C330.578888,151,332.694366,149.429367,335.109283,147.509705C337.52417,145.590042,340.321686,144.015045,341.325958,144.009705C342.330231,144.004364,345.908386,146.137497,349.277405,148.75C352.646423,151.362503,356.043823,153.985336,356.827179,154.578506C358.052399,155.506302,357.996338,156.739044,356.425995,163.400101C355.235992,168.447784,354.931152,171.586258,355.550262,172.415985C356.072632,173.116013,358.255768,176.045074,360.401733,178.925003L364.303467,184.161255L371.901733,183.830627L379.5,183.5L383.740021,192C386.072052,196.675003,387.982849,201.175003,387.986298,202C387.989716,202.824997,385.260223,205.708267,381.920776,208.407272C377.065582,212.331284,375.966858,213.733871,376.437317,215.407272C376.760864,216.558273,377.547638,220.74382,378.185638,224.708511C379.290283,231.572815,379.490692,231.948868,382.382965,232.584106C384.053467,232.951019,387.408051,234.103287,389.837616,235.144714L394.254974,237.038223L393.533539,246.260391C393.136749,251.332596,392.420349,256.214539,391.941559,257.109192C391.462769,258.003815,389.617065,259.026581,387.839996,259.381989C377.7677,261.396454,377.496429,261.581177,375.568604,267.738373C374.576416,270.907257,373.111023,274.776215,372.312134,276.336029C370.885742,279.121124,370.959656,279.276886,376.42984,285.01178C379.493439,288.223633,382,291.152863,382,291.521179C382,292.410736,371.041626,308.856262,370.033844,309.479065C369.601379,309.746368,366.080444,308.887848,362.209534,307.571259L355.171539,305.17749L348.531586,310.338745L341.891632,315.5L342.480682,320.5C342.804688,323.25,343.320831,326.918243,343.627716,328.651672C344.164246,331.682159,343.904999,331.967255,336.885864,336.06665C324.455902,343.326141,324.90033,343.30658,318.250397,336.886902L312.5,331.335632L308.5,332.766235C306.299988,333.55307,302.480774,334.715057,300.012848,335.348419C295.591156,336.483215,295.501343,336.590363,293.85614,342.69455C292.937897,346.101532,291.893036,349.364044,291.534271,349.94455C291.141205,350.580536,286.557159,351,280,351C273.442841,351,268.858795,350.580536,268.465729,349.94455z"/>
    <path transform="matrix(0.639153,0,0,-0.639153,72.127792,-98.066605)" style="stroke:#000000;stroke-width:0.078229mm;fill:none" d="M306,318.091797C311.225006,316.325928,315.864929,314.520416,316.310974,314.07959C317.058136,313.341125,261.24469,257.918884,258.996307,257.166656C256.773193,256.422882,258.308044,258.86908,264.070831,265.254181C270.813293,272.724731,271.669708,276.248383,266.878052,276.804077C264.747345,277.051147,263.202423,275.926971,258.632538,270.804077L253.008987,264.5L252.795532,271.5C252.678131,275.350006,252.487625,280.075012,252.372162,282C252.256714,283.924988,252.125748,286.464355,252.081116,287.643005C251.989471,290.064301,249.630295,291.334808,246.859116,290.455292C245.178284,289.921814,245,288.672943,245,277.432617C245,270.594666,244.719849,265,244.377426,265C244.035019,265,240.868561,267.700012,237.340851,271C230.526093,277.374878,227.771698,278.310455,225.933029,274.874878C224.911087,272.965332,225.589935,271.950836,232.62439,264.874878L240.453079,257L228.348984,257C214.703766,257,212.692688,256.164673,214.864136,251.398834L216.022324,248.856888L227.761169,249.538452L239.5,250.220016L232.75,243.334915C225.922546,236.370804,224.636902,233.37616,227.466385,231.027908C229.483932,229.353485,229.992676,229.648544,237.332565,236.75C240.885483,240.1875,244.049377,243,244.363464,243C244.677536,243,245.061737,237.985489,245.217255,231.856659C245.453995,222.52623,245.784714,220.534088,247.25,219.611771C248.523132,218.810394,249.476868,218.810013,250.75,219.610397C252.191925,220.516891,252.588028,222.679535,253,231.895309L253.5,243.080048L259,237.466278C266.190216,230.127335,267.634796,229.359512,270.083191,231.575287C271.137421,232.529358,272,233.701584,272,234.180206C272,234.658844,269.299988,237.952744,266,241.5C262.700012,245.047256,260,248.431793,260,249.02121C260,249.753616,263.138214,249.893982,269.912872,249.46463C281.475342,248.731827,284.29541,249.615082,283.809937,253.817261C283.517731,256.346405,283.141144,256.528625,277.232819,257L270.965607,257.5L297.258087,283.768341L323.550598,310.036682L328.386322,306.969971C342.765106,297.851196,355.253418,280.796661,360.949738,262.5C363.362091,254.75148,364.739227,237.415131,363.564575,229.582092C362.986938,225.730042,362.524597,224.911209,361.174194,225.348373C360.253387,225.646469,355.836609,227.236115,351.3591,228.88092C339.86618,233.102844,326.025543,234.692413,313.819031,233.192337C302.593353,231.812775,292.855804,228.782455,278.230408,222.117172C263.338226,215.330307,254.857254,213.605347,239.617325,214.263565C223.922806,214.941406,211.487091,218.749008,200.256836,226.315018L197.013672,228.5L197.0242,238.5C197.063309,275.639465,219.356888,306.127777,255.06868,317.880615C265.722015,321.386658,269.799805,321.920593,283.5,321.603424C295.035095,321.336395,297.570496,320.940674,306,318.091797z"/>
    <path transform="matrix(0.639153,0,0,-0.639153,72.127792,-98.066605)" style="stroke:#000000;stroke-width:0.078229mm;fill:none" d="M339.747223,223.008789C348.132782,220.998413,360,215.738815,360,214.032654C360,212.455688,357.726898,208,356.922394,208C356.506287,208,354.203278,208.841232,351.804657,209.869415C340.202393,214.842712,322.126251,216.369202,308.64917,213.513763C304.881195,212.715439,296.781189,209.958679,290.64917,207.387619C284.51712,204.816574,275,201.096268,269.5,199.12027C259.714569,195.604645,259.178162,195.527267,244.5,195.513779C227.499847,195.498169,219.778748,196.975983,209.04805,202.299301C203.46138,205.07074,202.419754,206.029694,201.281265,209.449661C200.558121,211.621979,200.086487,213.704544,200.233215,214.077576C200.379944,214.450623,203.872665,213.403076,207.994812,211.74971C230.190002,202.847382,254.682556,202.819962,276,211.673599C280.674988,213.615234,288.233948,216.765625,292.797668,218.674454C308.553192,225.264389,324.281952,226.716446,339.747223,223.008789z"/>
    <path transform="matrix(0.639153,0,0,-0.639153,72.127792,-98.066605)" style="stroke:#000000;stroke-width:0.078229mm;fill:none" d="M333.823669,205.95874C340.849854,204.818604,353,200.310684,353,198.843994C353,198.32518,352.294586,196.53656,351.432404,194.869293C350.295807,192.671356,349.402252,192.022079,348.182404,192.507782C340.313263,195.641068,330.015076,197.214447,320.548553,196.729736C309.539124,196.166016,305.334961,194.944504,288.42337,187.395813L277.935699,182.714508L289.717865,177.021179C296.198029,173.889847,304.649994,170.108063,308.5,168.617218C312.350006,167.126373,316.357971,165.563339,317.406586,165.143814C318.9758,164.516006,318.386841,163.982513,314.078369,162.129059L308.843567,159.877106L302.296844,161.992126C298.696167,163.155396,291.299652,166.3405,285.860199,169.07016C271.024048,176.515289,267.577301,177.231766,245,177.563904C234.274994,177.72168,224.733612,177.913895,223.796906,177.991058C222.133469,178.128098,210.514862,189.84819,211.281982,190.615311C211.495056,190.828384,215.231277,190.087082,219.584702,188.967941C241.460037,183.344467,263.925171,186.101944,289,197.488297C307.408569,205.847549,319.92865,208.213501,333.823669,205.95874z"/>
    <path transform="matrix(0.639153,0,0,-0.639153,72.127792,-98.066605)" style="stroke:#000000;stroke-width:0.078229mm;fill:none" d="M336.046204,187.096756C337.996613,186.503738,340.471588,185.370834,341.546204,184.579193C343.441711,183.182785,343.397217,183.033356,340.054016,179.570099C338.158691,177.606735,334.980103,174.872223,332.990479,173.493393L329.372925,170.986435L321.936462,172.910782C312.890167,175.251694,298.342041,181.770462,299.595276,182.921509C300.405914,183.666061,310.340118,187.074295,315.5,188.378128C318.559418,189.151199,332.058014,188.309357,336.046204,187.096756z"/>
    <path transform="matrix(0.639153,0,0,-0.639153,72.127792,-98.066605)" style="stroke:#000000;stroke-width:0.078229mm;fill:none" d="M280.494141,162.003021C294.391144,154.834488,294.452087,154.518768,282.158875,153.380402C269.411987,152.200043,254.56459,156.021027,241.522949,163.838074C235.89415,167.211914,235.690216,167.46405,238.022949,168.165344C239.38533,168.574921,246.682846,168.808456,254.23967,168.684311L267.97934,168.458572L280.494141,162.003021z"/>
    <path transform="matrix(0.639153,0,0,-0.639153,72.127792,-98.066605)" style="stroke:#000000;stroke-width:0.078229mm;fill:none" d="M22.237526,51.75L22.5,15.5L41.25,15.227935L60,14.95587L60,19.977934L60,25L47.5,25L35,25L35,56.5L35,88L28.487526,88L21.975052,88L22.237526,51.75z"/>
    <path transform="matrix(0.639153,0,0,-0.639153,72.127792,-98.066605)" style="stroke:#000000;stroke-width:0.078229mm;fill:none" d="M73.339668,62.337784C73.70285,48.223568,74,31.798567,74,25.837786L74,15L93,15L112,15L112,20L112,25L99.5,25L87,25L87.000702,36.25L87.001411,47.5L96.750702,47.5L106.5,47.5L106.804794,52.25L107.109581,57L97.054794,57L87,57L87,68L87,79L99,79L111,79L111,83.5L111,88L91.839668,88L72.679337,88L73.339668,62.337784z"/>
    <path transform="matrix(0.639153,0,0,-0.639153,72.127792,-98.066605)" style="stroke:#000000;stroke-width:0.078229mm;fill:none" d="M131,51.5L131,15L137.5,15L144,15L144,51.5L144,88L137.5,88L131,88L131,51.5z"/>
    <path transform="matrix(0.639153,0,0,-0.639153,72.127792,-98.066605)" style="stroke:#000000;stroke-width:0.078229mm;fill:none" d="M165,51.547718L165,15L170.482224,15L175.964447,15L176.232224,39.21167L176.5,63.42334L190.338776,39.21167L204.177536,15L209.088776,15L214,15L214,51.5L214,88L209,88L204,88L204,64.300003C204,46.891376,203.704453,40.89555,202.886642,41.713352C202.274307,42.325695,196.311798,52.878197,189.636642,65.163353L177.5,87.5L171.25,87.797714L165,88.095436L165,51.547718z"/>
    <path transform="matrix(0.639153,0,0,-0.639153,72.127792,-98.066605)" style="stroke:#000000;stroke-width:0.078229mm;fill:none" d="M235.237518,51.75L235.5,15.5L254.25,15.227935L273,14.95587L273,19.977934L273,25L260.467255,25L247.934494,25L248.217255,36.25L248.5,47.5L258,47.522175L267.5,47.544353L267.804779,52.272175L268.109589,57L258.020966,57L247.932343,57L248.216171,67.75L248.5,78.5L260.25,78.781738L272,79.063469L272,83.531738L272,88L253.487518,88L234.975052,88L235.237518,51.75z"/>
    <path transform="matrix(0.639153,0,0,-0.639153,72.127792,-98.066605)" style="stroke:#000000;stroke-width:0.078229mm;fill:none" d="M286.382629,86.25C286.667206,85.287498,289.86795,71.686188,293.495392,56.024868C297.122833,40.363548,300.805603,24.703854,301.679352,21.22555L303.267914,14.90136L307.815033,15.20068L312.362152,15.5L318.330048,39.216942C321.612396,52.261257,324.680939,62.697201,325.148987,62.407925C325.617035,62.118649,326.012756,61.121025,326.028351,60.190983C326.043945,59.260941,328.632568,48.825001,331.780792,37L337.504883,15.5L342.168762,15.198627C345.950836,14.954234,346.936432,15.237837,347.381775,16.698627C348.073364,18.967255,363,86.504967,363,87.365555C363,87.7145,360.832886,88,358.184235,88L353.368439,88L348.591522,64.25C345.964233,51.1875,343.693848,40.375031,343.546265,40.222286C343.398651,40.069542,341.871552,45.244545,340.152679,51.722286C338.433807,58.200027,335.558777,69.009331,333.763733,75.74295L330.5,87.985909L326,87.992393L321.5,87.998878L316.06076,66.249435C313.069153,54.287247,310.334198,43.906967,309.983032,43.182152C309.631866,42.457336,308.768402,45.157333,308.064209,49.182152C307.360016,53.206966,305.748047,61,304.482086,66.5C303.216125,72,301.657837,79.087502,301.019257,82.25L299.858215,88L292.861725,88C286.667938,88,285.924591,87.799217,286.382629,86.25z"/>
    <path transform="matrix(0.639153,0,0,-0.639153,72.127792,-98.066605)" style="stroke:#000000;stroke-width:0.078229mm;fill:none" d="M378.237518,51.75L378.5,15.5L397.75,15.228407L417,14.956815L417,19.94853L417,24.940247L404.25,25.220123L391.5,25.5L391.5,36.5L391.5,47.5L401,47.5L410.5,47.5L410.803284,52.213146L411.106567,56.926292L401.303284,57.213146L391.5,57.5L391.5,68L391.5,78.5L403.25,78.781738L415,79.063469L415,83.531738L415,88L396.487518,88L377.975037,88L378.237518,51.75z"/>
    <path transform="matrix(0.639153,0,0,-0.639153,72.127792,-98.066605)" style="stroke:#000000;stroke-width:0.078229mm;fill:none" d="M434,87.668617C433.725006,87.393456,433.623505,70.93045,433.774475,51.084164L434.048981,15L440.524475,15L447,15L447,29.5L447,44L450.75,43.984993L454.5,43.969986L460.086639,29.734993L465.673279,15.5L472.336639,15.20431C476.001495,15.04168,479,15.156549,479,15.459573C479,15.762597,476.06424,23.092068,472.476074,31.747286C468.887909,40.402504,466.300415,47.601921,466.726074,47.745991C470.529846,49.033413,474.424286,52.704929,476.168427,56.64782C477.788147,60.309532,478.128754,62.82814,477.846039,69.053642C477.431946,78.172195,475.79071,81.101425,468.911407,85C464.845612,87.304138,463.324799,87.526207,449.5,87.834457C441.25,88.018402,434.274994,87.943779,434,87.668617z"/>
    <path transform="matrix(0.639153,0,0,-0.639153,72.127792,-98.066605)" style="stroke:#000000;stroke-width:0.078229mm;fill:none" d="M461.5979,76.669441C463.794342,74.780144,464.396301,73.266388,464.7771,68.674484C465.630463,58.383736,461.8284,54,452.049652,54L447,54L447,66.5L447,79L452.944244,79C457.727814,79,459.417511,78.544937,461.5979,76.669441z"/>
    <path transform="matrix(0.639153,0,0,-0.639153,72.127792,-98.066605)" style="stroke:#000000;stroke-width:0.078229mm;fill:none" d="M497,51.5L497,15L503.5,15L510,15L510,26.521441C510,37.321293,510.166565,38.294586,512.659607,42.061829C514.122375,44.272247,515.653687,45.725101,516.062439,45.290386C516.471252,44.855675,519.751404,37.974998,523.351685,30L529.897644,15.5L536.948853,15.20619C540.826965,15.044595,544,15.134695,544,15.406413C544,15.67813,539.5,25.214808,534,36.59903C528.5,47.98325,524,57.591255,524,57.950157C524,58.309055,526.378601,62.629593,529.285706,67.551353C532.192871,72.473106,536.050903,79.087502,537.859131,82.25L541.14679,88L535.310181,88L529.473572,88L519.986816,71.75L510.5,55.5L510.22522,71.75L509.95047,88L503.47522,88L497,88L497,51.5z"/>
</svg>
